PathFileType	4	(X/Y/Z)	c:/Users/goper/Files/vsCode/490R/osim_files/C10/C10_Slow_06.trc
DataRate	CameraRate	NumFrames	NumMarkers	Units                	OrigDataRate	OrigDataStartFrame	OrigNumFrames
250.00	250.00	8	36	mm	250.0	1368	2735
                Frame#	Time	LPSIS			LASIS			LTH1			LTH2			LTH3			LTH4			LLFE			LMFE			LSH1			LSH2			LSH3			LSH4			LLMAL			LMMAL			LCAL			LMTP5			LTOE			LMTP1			RPSIS			RASIS			RTH1			RTH2			RTH3			RTH4			RLFE			RMFE			RSH1			RSH2			RSH3			RSH4			RLMAL			RMMAL			RCAL			RMTP1			RTOE			RMTP5		
		X1	Y1	Z1	X2	Y2	Z2	X3	Y3	Z3	X4	Y4	Z4	X5	Y5	Z5	X6	Y6	Z6	X7	Y7	Z7	X8	Y8	Z8	X9	Y9	Z9	X10	Y10	Z10	X11	Y11	Z11	X12	Y12	Z12	X13	Y13	Z13	X14	Y14	Z14	X15	Y15	Z15	X16	Y16	Z16	X17	Y17	Z17	X18	Y18	Z18	X19	Y19	Z19	X20	Y20	Z20	X21	Y21	Z21	X22	Y22	Z22	X23	Y23	Z23	X24	Y24	Z24	X25	Y25	Z25	X26	Y26	Z26	X27	Y27	Z27	X28	Y28	Z28	X29	Y29	Z29	X30	Y30	Z30	X31	Y31	Z31	X32	Y32	Z32	X33	Y33	Z33	X34	Y34	Z34	X35	Y35	Z35	X36	Y36	Z36

1368	5.46800	-919.65857	985.08588	298.19122	-1079.36011	973.92017	423.72308	-1092.89099	741.18481	465.62561	-1116.61511	699.56659	463.83847	-1144.73303	764.76318	447.75995	-1159.33594	720.33984	444.56711	-1234.21326	490.68344	384.53104	-1230.74463	485.09927	266.44028	-1213.50500	392.89932	395.36325	-1232.82654	350.14526	396.44656	-1270.80042	412.80374	380.75381	-1280.47461	367.75482	383.07410	-1350.02576	100.68209	351.57373	0.00000	0.00000	0.00000	-1310.30884	26.33851	310.53317	-1473.16089	91.96619	362.75967	-1505.81604	135.49886	298.09885	-1484.35864	91.94832	256.23456	-928.09265	996.93164	217.20885	-1086.69116	972.78119	87.39472	-962.01935	735.50513	51.50551	-961.22900	692.07574	52.11792	-1023.13165	728.04425	46.69135	-1014.96631	684.15649	49.43694	-927.84454	468.34186	117.63042	-935.94849	460.13904	229.20000	-830.42389	403.46039	106.47336	-820.04321	360.88672	106.93919	-888.80542	381.75269	115.14143	-869.32019	343.04880	113.50246	-746.43353	105.98906	165.68217	-754.41022	93.79586	251.91393	-674.39716	65.56610	199.20818	-856.05981	35.41576	255.68938	-893.60870	42.33181	223.44037	-851.90771	30.48849	153.36725
1369	5.47200	-924.68555	984.31702	298.72491	-1084.27698	973.51105	424.31635	-1099.26282	740.81750	465.71094	-1123.19092	699.28278	463.77985	-1150.97180	764.61377	447.71994	-1165.74976	720.26526	444.38312	-1239.86243	490.21805	383.84927	-1236.70496	484.96365	266.23517	-1218.02673	392.18066	394.63913	-1236.86414	349.22095	395.69977	-1275.60034	411.51852	380.11996	-1284.74695	366.33032	382.36316	-1351.12292	99.15282	350.59723	0.00000	0.00000	0.00000	-1310.43579	26.55466	310.07101	-1474.46057	89.39371	362.39035	-1507.65869	131.71794	297.12778	-1485.72034	88.42004	255.59471	-933.19366	996.22485	217.80151	-1091.47754	972.06433	87.86728	-966.67017	735.11450	51.94119	-965.92065	692.00635	52.45635	-1027.78638	727.49402	47.09328	-1019.46661	683.61176	49.82403	-931.63257	468.01599	117.77038	-939.82184	459.68146	229.34869	-833.75854	403.86346	106.54015	-823.09583	361.38235	106.97164	-891.93018	381.71494	115.21617	-872.20709	343.11536	113.53216	-747.24377	107.06039	165.46474	-755.03180	94.68985	251.64484	-674.70056	66.94963	199.14191	-856.27563	35.54274	256.51099	-893.66248	42.12335	223.39630	-851.94055	30.44135	153.30083
1370	5.47600	-929.80060	983.53571	299.21823	-1089.22388	973.06274	424.95541	-1105.53528	740.46649	465.78537	-1129.71729	698.97888	463.72687	-1157.16003	764.45770	447.69028	-1172.09998	720.14130	444.18991	-1245.48511	489.74612	383.15900	-1242.46704	484.76196	266.02307	-1222.44788	391.40781	393.88345	-1240.82361	348.19830	395.82492	-1280.19421	409.83353	379.18512	-1288.91199	364.81036	381.67242	-1352.02844	97.52634	349.81592	0.00000	0.00000	0.00000	-1310.53345	26.71000	309.68713	-1475.51318	86.91640	361.84805	-1509.69641	128.22282	296.38968	-1486.94409	85.01215	255.16077	-938.34583	995.51147	218.40979	-1096.16443	971.38428	88.37478	-971.34045	734.70319	52.38315	-970.52802	691.61859	52.83720	-1032.40527	726.94745	47.47956	-1024.07263	683.13177	50.19961	-935.68719	467.68597	117.94535	-943.87866	459.22110	229.58148	-837.27246	404.22656	106.66052	-826.19830	361.89038	106.99075	-895.24133	381.60922	115.24993	-875.16284	343.16370	113.60374	-748.19489	108.15847	165.25494	-755.79565	95.68587	251.37540	-675.09650	68.38097	199.06496	-856.46545	35.57991	256.41809	-893.70068	41.91752	223.35359	-852.07312	30.34965	153.27788
1371	5.48000	-935.09869	982.78271	299.75754	-1094.30383	972.64825	425.63455	-1111.79346	740.04529	465.89032	-1136.21777	698.62543	463.60379	-1163.39600	764.26038	447.66638	-1178.43555	720.00220	444.00198	-1251.09668	489.19772	382.43710	-1248.10767	484.51285	265.89609	-1226.75244	390.56757	393.09988	-1244.78027	347.72263	394.49152	-1284.74634	408.37784	378.50879	-1292.96472	363.28644	380.94336	-1352.90686	96.21129	349.18167	0.00000	0.00000	0.00000	-1310.73511	26.93226	309.33163	-1476.62207	84.34490	361.08044	-1511.54578	124.83116	295.54431	-1488.03711	81.93501	254.51337	-943.59985	994.77686	219.00128	-1100.98926	970.67499	88.94683	-976.07953	734.30933	52.82646	-975.18665	691.23499	53.26921	-1037.13599	726.40826	47.85799	-1028.73535	682.59576	50.59132	-939.78326	467.31442	118.07481	-948.09937	458.73218	229.74025	-840.90106	404.62723	106.75273	-829.38037	362.39420	106.99860	-898.53278	381.53314	115.33162	-878.16333	343.24820	113.62002	-749.08496	109.30438	164.98524	-756.59650	96.72911	251.14626	-675.25903	69.96099	199.14545	-856.23022	35.64083	256.45953	-893.77637	41.68375	223.29698	-852.13318	30.26753	153.21844
1372	5.48400	-940.36566	982.13031	300.26056	-1099.47998	972.21466	426.25339	-1118.05737	739.61877	465.95584	-1142.66943	698.29004	463.44962	-1169.56262	763.97675	447.61359	-1184.70178	719.81934	443.72296	-1256.49316	488.64285	381.71161	-1253.66687	484.13403	265.75876	-1230.93591	389.66269	392.29572	-1248.21851	345.81589	393.78018	-1289.23718	406.93060	377.81360	-1296.96106	361.75647	380.18069	-1354.11230	95.10909	348.58264	0.00000	0.00000	0.00000	-1311.16089	27.36647	309.14474	-1477.95081	81.76704	360.23550	-1513.22827	121.53226	294.46716	-1489.12170	79.17779	253.59995	-948.82874	994.12396	219.58855	-1105.80505	969.94751	89.46763	-980.87482	733.91937	53.25652	-979.75049	690.50458	53.73952	-1041.88086	725.86066	48.20334	-1033.41125	682.08496	50.95687	-943.97198	466.94360	118.21281	-952.26117	458.15775	229.91318	-844.57849	404.99161	106.82786	-832.79138	362.85345	107.06875	-902.04449	381.41547	115.38914	-881.34491	343.26257	113.63838	-750.05737	110.48497	164.71507	-757.47412	97.81858	250.80815	-676.15881	71.64137	198.78127	-856.60278	36.68867	258.16171	-893.86536	41.47441	223.22835	-852.19745	30.28341	153.12218
1373	5.48800	-945.59338	981.47833	300.82571	-1104.64795	971.74817	426.94394	-1124.23608	739.09399	465.94885	-1148.85962	697.83063	463.22238	-1175.74023	763.61401	447.52390	-1190.87659	719.51062	443.34186	-1261.96240	488.49866	380.00861	-1259.16443	483.64420	265.71967	-1235.03674	388.75943	391.49243	-1252.14209	345.19778	392.81415	-1293.56262	405.48901	377.13721	-1300.81885	360.22025	379.39606	-1355.91687	94.01124	348.17422	0.00000	0.00000	0.00000	-1311.93103	28.02829	309.13876	-1479.53577	79.17921	359.80109	-1515.09143	118.30024	293.37952	-1490.46765	76.53645	252.70575	-954.05865	993.45374	220.16980	-1110.64172	969.22955	90.04230	-985.72009	733.45538	53.74512	-984.65118	690.43475	54.09013	-1046.70361	725.35046	48.66058	-1038.11951	681.54846	51.31348	-948.33881	466.56821	118.34065	-956.60553	457.55722	230.12755	-848.40381	405.36145	106.89478	-836.20575	363.34604	107.13145	-905.58960	381.30792	115.43200	-884.63379	343.29532	113.71564	-751.12042	111.70930	164.46260	-758.47455	98.98813	250.52290	-676.50726	73.47648	198.70488	-855.91809	35.72149	256.08426	-893.92615	41.25610	223.17412	-852.28778	30.23979	153.04962
1374	5.49200	-950.90851	980.90363	301.38574	-1109.84387	971.23279	427.58224	-1130.40332	738.56970	466.01755	-1155.05066	697.31793	462.95200	-1181.75745	763.22290	447.41537	-1196.93396	719.13092	442.92743	-1267.17139	487.81583	379.26471	-1264.38586	482.96021	265.74545	-1239.10449	387.93991	390.71515	-1255.89490	344.17130	392.75681	-1297.80457	404.18979	376.52283	-1304.71045	358.87775	378.71512	-1358.53882	93.06198	347.87595	0.00000	0.00000	0.00000	-1313.01367	28.95471	309.31012	-1481.87463	75.92585	358.40714	-1517.20520	115.05169	292.30774	-1491.75293	74.59396	251.38109	-959.29547	992.89368	220.72433	-1115.52905	968.46869	90.62421	-990.56622	733.05396	54.23317	-989.43921	690.02698	54.53174	-1051.52551	724.86176	49.03365	-1042.88452	681.08466	51.72357	-952.85669	466.14291	118.51537	-961.11371	456.91858	230.36041	-852.35815	405.74588	106.96409	-839.77899	363.84299	107.17682	-909.28650	381.20032	115.50267	-887.93512	343.34674	113.72448	-752.20709	113.00374	164.19046	-759.37378	100.18848	250.20650	-677.18768	75.37140	198.46451	-855.86285	36.17020	254.95853	-894.04962	41.05971	223.07913	-852.41541	30.21284	153.01414
1375	5.49600	-956.20880	980.40851	302.00772	-1115.08057	970.74445	428.27594	-1136.37354	737.97833	466.12018	-1161.12415	696.73822	462.60736	-1187.75403	762.72272	447.29044	-1202.86877	718.62390	442.51599	-1272.22253	487.03772	378.57907	-1269.45203	482.09201	265.87445	-1243.18835	387.28619	389.98895	-1259.68689	343.32297	391.88141	-1301.97815	403.14328	376.01825	-1308.64978	357.79987	378.04083	-1361.92041	92.49598	347.58145	0.00000	0.00000	0.00000	-1314.30627	30.04874	309.46411	-1484.32520	72.42302	357.49063	-1519.96021	111.32645	291.36765	-1493.48218	71.99388	250.33327	-964.57617	992.33264	221.34193	-1120.45728	967.72412	91.20440	-995.43262	732.64777	54.76855	-994.26495	689.63538	55.03009	-1056.42896	724.41034	49.44879	-1047.71191	680.59589	52.17176	-957.44110	465.72382	118.69289	-965.79651	456.25143	230.53769	-856.37598	406.19586	107.06658	-843.47412	364.35382	107.05500	-913.71002	380.19321	116.53920	-891.44080	343.40463	113.79984	-753.43719	114.35294	163.88580	-760.47266	101.42711	249.91298	-676.84827	78.18472	197.82472	-859.30072	34.54464	253.00066	-894.14124	40.84162	223.02202	-852.56244	30.17361	152.97676
